<?xml version="1.0" standalone="no"?>
<!DOCTYPE svg PUBLIC "-//W3C//DTD SVG 20010904//EN"
 "http://www.w3.org/TR/2001/REC-SVG-20010904/DTD/svg10.dtd">
<svg version="1.0" xmlns="http://www.w3.org/2000/svg"
 width="300.000000pt" height="176.000000pt" viewBox="0 0 300.000000 176.000000"
 preserveAspectRatio="xMidYMid meet">
<metadata>
Created by potrace 1.11, written by Peter Selinger 2001-2013
</metadata>
<g transform="translate(0.000000,176.000000) scale(0.100000,-0.100000)"
fill="#000000" stroke="none">
<path d="M1210 1569 c-323 -46 -578 -129 -741 -240 -389 -263 -384 -647 13
-907 382 -249 1112 -317 1671 -156 303 87 519 232 615 411 31 59 43 93 21 63
-9 -12 -10 -12 -5 3 3 10 6 23 6 28 0 6 4 8 9 4 6 -3 8 10 5 32 -3 29 -2 33 5
18 19 -41 12 110 -9 177 -82 265 -398 460 -890 549 -104 18 -168 22 -380 25
-140 1 -284 -2 -320 -7z"/>
</g>
</svg>
